Tilt-Monument-Model.ufo
<glyph name="exclam" format="2">
  <advance width="289"/>
  <unicode hex="0021"/>
  <outline>
    <contour>
      <point x="64" y="0" type="line"/>
      <point x="225" y="0" type="line"/>
      <point x="225" y="161" type="line"/>
      <point x="64" y="161" type="line"/>
    </contour>
    <contour>
      <point x="91" y="257" type="line"/>
      <point x="78" y="577"/>
      <point x="70" y="614"/>
      <point x="51.0" y="680.0" type="curve"/>
      <point x="238.0" y="680.0" type="line"/>
      <point x="219.0" y="614.0"/>
      <point x="211.0" y="577.0"/>
      <point x="198.0" y="257.0" type="curve"/>
    </contour>
  </outline>
</glyph>
<glyph name="dollar" format="2">
  <advance width="535"/>
  <unicode hex="0024"/>
  <outline>
    <contour>
      <point x="217" y="590" type="line"/>
      <point x="227" y="770" type="line"/>
      <point x="356" y="770" type="line"/>
      <point x="342" y="590" type="line"/>
    </contour>
    <contour>
      <point x="170" y="-100" type="line"/>
      <point x="182" y="50" type="line"/>
      <point x="307" y="50" type="line"/>
      <point x="299" y="-100" type="line"/>
    </contour>
    <contour>
      <point x="351" y="195" type="curve" smooth="yes"/>
      <point x="351" y="282"/>
      <point x="45" y="268"/>
      <point x="45" y="472" type="curve" smooth="yes"/>
      <point x="45" y="594"/>
      <point x="147" y="660"/>
      <point x="300" y="660" type="curve" smooth="yes"/>
      <point x="354" y="660"/>
      <point x="410" y="651"/>
      <point x="471" y="634" type="curve"/>
      <point x="471" y="470" type="line"/>
      <point x="417" y="514"/>
      <point x="346" y="536"/>
      <point x="287" y="536" type="curve" smooth="yes"/>
      <point x="225" y="536"/>
      <point x="196" y="516"/>
      <point x="196" y="488" type="curve" smooth="yes"/>
      <point x="196" y="399"/>
      <point x="500" y="409"/>
      <point x="500" y="210" type="curve" smooth="yes"/>
      <point x="500" y="80"/>
      <point x="391" y="16"/>
      <point x="239" y="17" type="curve" smooth="yes"/>
      <point x="179" y="17"/>
      <point x="116" y="27"/>
      <point x="49" y="45" type="curve"/>
      <point x="49" y="211" type="line"/>
      <point x="108" y="165"/>
      <point x="186" y="143"/>
      <point x="251" y="143" type="curve" smooth="yes"/>
      <point x="319" y="143"/>
      <point x="351" y="164"/>
    </contour>
  </outline>
</glyph>
<glyph name="parenleft" format="2">
  <advance width="388"/>
  <unicode hex="0028"/>
  <outline>
    <contour>
      <point x="201.0" y="337.5" type="curve" smooth="yes"/>
      <point x="201.0" y="189.60365853658539"/>
      <point x="251.0" y="34.664634146341456"/>
      <point x="378.0" y="-75.0" type="curve"/>
      <point x="255.0" y="-75.0" type="line"/>
      <point x="126.0" y="40.70121951219511"/>
      <point x="55.0" y="186.58536585365852"/>
      <point x="55.0" y="337.5" type="curve" smooth="yes"/>
      <point x="55.0" y="489.42073170731703"/>
      <point x="126.0" y="634.298780487805"/>
      <point x="255.0" y="750.0" type="curve"/>
      <point x="378.0" y="750.0" type="line"/>
      <point x="251.0" y="640.3353658536586"/>
      <point x="201.0" y="486.4024390243902"/>
    </contour>
  </outline>
</glyph>
<glyph name="parenright" format="2">
  <advance width="388"/>
  <unicode hex="0029"/>
  <outline>
    <contour>
      <point x="187" y="338" type="curve" smooth="yes"/>
      <point x="187" y="486"/>
      <point x="137" y="640"/>
      <point x="10" y="750" type="curve"/>
      <point x="133" y="750" type="line"/>
      <point x="262" y="634"/>
      <point x="333" y="489"/>
      <point x="333" y="338" type="curve" smooth="yes"/>
      <point x="333" y="187"/>
      <point x="262" y="41"/>
      <point x="133" y="-75" type="curve"/>
      <point x="10" y="-75" type="line"/>
      <point x="137" y="35"/>
      <point x="187" y="190"/>
    </contour>
  </outline>
</glyph>
<glyph name="asterisk" format="2">
  <advance width="614"/>
  <unicode hex="002A"/>
  <outline>
    <contour>
      <point x="376" y="680" type="line"/>
      <point x="362.0" y="608.0"/>
      <point x="335.0" y="540.0"/>
      <point x="295.0" y="478.0" type="curve"/>
      <point x="255" y="540"/>
      <point x="228" y="608"/>
      <point x="214" y="680" type="curve"/>
    </contour>
    <contour>
      <point x="376.0" y="188.0" type="curve"/>
      <point x="214.0" y="188.0" type="line"/>
      <point x="228.0" y="260.0"/>
      <point x="255.0" y="328.0"/>
      <point x="295.0" y="390.0" type="curve"/>
      <point x="335.0" y="328.0"/>
      <point x="362.0" y="260.0"/>
    </contour>
    <contour>
      <point x="122" y="627" type="line"/>
      <point x="178" y="579"/>
      <point x="223" y="522"/>
      <point x="257" y="456.0" type="curve"/>
      <point x="183" y="452"/>
      <point x="111" y="463"/>
      <point x="41" y="487" type="curve"/>
    </contour>
    <contour>
      <point x="549" y="381" type="curve"/>
      <point x="468" y="241" type="line"/>
      <point x="412" y="289"/>
      <point x="367" y="346"/>
      <point x="333" y="412.0" type="curve"/>
      <point x="407" y="416"/>
      <point x="479" y="405"/>
    </contour>
    <contour>
      <point x="122" y="241" type="curve"/>
      <point x="41" y="381" type="line"/>
      <point x="111" y="405"/>
      <point x="183" y="416"/>
      <point x="257.0" y="412.0" type="curve"/>
      <point x="223" y="346"/>
      <point x="178" y="289"/>
    </contour>
    <contour>
      <point x="549" y="487" type="line"/>
      <point x="479" y="463"/>
      <point x="407" y="452"/>
      <point x="333.0" y="456.0" type="curve"/>
      <point x="367" y="522"/>
      <point x="412" y="579"/>
      <point x="468" y="627" type="curve"/>
    </contour>
  </outline>
</glyph>
<glyph name="comma" format="2">
  <advance width="272"/>
  <unicode hex="002C"/>
  <outline>
    <contour>
      <point x="52" y="161" type="curve"/>
      <point x="219" y="161" type="line"/>
      <point x="241" y="70"/>
      <point x="211" y="-70"/>
      <point x="57" y="-130" type="curve"/>
      <point x="87" y="-1"/>
      <point x="88" y="72"/>
    </contour>
  </outline>
</glyph>
<glyph name="period" format="2">
  <advance width="271"/>
  <unicode hex="002E"/>
  <outline>
    <contour>
      <point x="55" y="0" type="line"/>
      <point x="216" y="0" type="line"/>
      <point x="216" y="161" type="line"/>
      <point x="55" y="161" type="line"/>
    </contour>
  </outline>
</glyph>
<glyph name="slash" format="2">
  <advance width="480"/>
  <unicode hex="002F"/>
  <outline>
    <contour>
      <point x="25.0" y="-75.0" type="line"/>
      <point x="150.0" y="-75.0" type="line"/>
      <point x="450" y="750" type="line"/>
      <point x="325" y="750" type="line"/>
    </contour>
  </outline>
</glyph>
<glyph name="zero" format="2">
  <advance width="656"/>
  <unicode hex="0030"/>
  <outline>
    <contour>
      <point x="333" y="571" type="curve" smooth="yes"/>
      <point x="420" y="571"/>
      <point x="468" y="480"/>
      <point x="468" y="339" type="curve" smooth="yes"/>
      <point x="468" y="198"/>
      <point x="420" y="109"/>
      <point x="333" y="109" type="curve" smooth="yes"/>
      <point x="246" y="109"/>
      <point x="198" y="200"/>
      <point x="198" y="341" type="curve" smooth="yes"/>
      <point x="198" y="482"/>
      <point x="246" y="571"/>
    </contour>
    <contour>
      <point x="333" y="696" type="curve" smooth="yes"/>
      <point x="160" y="696"/>
      <point x="45" y="546"/>
      <point x="45" y="341" type="curve" smooth="yes"/>
      <point x="45" y="135"/>
      <point x="160" y="-16"/>
      <point x="333" y="-16" type="curve" smooth="yes"/>
      <point x="506" y="-16"/>
      <point x="621" y="134"/>
      <point x="621" y="339" type="curve" smooth="yes"/>
      <point x="621" y="545"/>
      <point x="506" y="696"/>
    </contour>
  </outline>
</glyph>
<glyph name="one" format="2">
  <advance width="392"/>
  <unicode hex="0031"/>
  <outline>
    <contour>
      <point x="255" y="550" type="line"/>
      <point x="132" y="533"/>
      <point x="78" y="509"/>
      <point x="28" y="468" type="curve"/>
      <point x="28" y="630" type="line"/>
      <point x="322" y="693" type="line"/>
      <point x="310" y="636"/>
      <point x="305" y="586"/>
      <point x="305" y="349" type="curve" smooth="yes"/>
      <point x="305" y="95"/>
      <point x="312" y="40"/>
      <point x="332" y="0" type="curve"/>
      <point x="125" y="0" type="line"/>
      <point x="154" y="43"/>
      <point x="162" y="95"/>
      <point x="162" y="349" type="curve" smooth="yes"/>
      <point x="162" y="436"/>
      <point x="161" y="498"/>
      <point x="159" y="544" type="curve"/>
    </contour>
  </outline>
</glyph>
<glyph name="two" format="2">
  <advance width="509"/>
  <unicode hex="0032"/>
  <outline>
    <contour>
      <point x="465" y="499" type="curve" smooth="yes"/>
      <point x="465" y="621"/>
      <point x="367" y="690"/>
      <point x="222" y="690" type="curve" smooth="yes"/>
      <point x="163" y="690"/>
      <point x="105" y="682"/>
      <point x="44" y="664" type="curve"/>
      <point x="44" y="500" type="line"/>
      <point x="97" y="541"/>
      <point x="161" y="567"/>
      <point x="217" y="567" type="curve" smooth="yes"/>
      <point x="284" y="567"/>
      <point x="312" y="535"/>
      <point x="312" y="488" type="curve" smooth="yes"/>
      <point x="312" y="347"/>
      <point x="69" y="275"/>
      <point x="22" y="0" type="curve"/>
      <point x="160" y="0" type="line"/>
      <point x="209" y="247"/>
      <point x="465" y="295"/>
    </contour>
    <contour>
      <point x="178" y="126" type="curve"/>
      <point x="127" y="0" type="line"/>
      <point x="454" y="0" type="line"/>
      <point x="474" y="166" type="line"/>
      <point x="435" y="135"/>
      <point x="373" y="120"/>
    </contour>
  </outline>
</glyph>
<glyph name="three" format="2">
  <advance width="520"/>
  <unicode hex="0033"/>
  <outline>
    <contour>
      <point x="258" y="339" type="line"/>
      <point x="495" y="680" type="line"/>
      <point x="348" y="680" type="line"/>
      <point x="91" y="312" type="line"/>
    </contour>
    <contour>
      <point x="316" y="554" type="curve" smooth="yes"/>
      <point x="382" y="554" type="line"/>
      <point x="412" y="680" type="line"/>
      <point x="64" y="680" type="line"/>
      <point x="64" y="524" type="line"/>
      <point x="99" y="542"/>
      <point x="152" y="554"/>
    </contour>
    <contour>
      <point x="225" y="111" type="curve" smooth="yes"/>
      <point x="166" y="111"/>
      <point x="111" y="136"/>
      <point x="55" y="177" type="curve"/>
      <point x="55" y="14" type="line"/>
      <point x="271" y="-63"/>
      <point x="491" y="25"/>
      <point x="491" y="208" type="curve" smooth="yes"/>
      <point x="491" y="334"/>
      <point x="387" y="422"/>
      <point x="229" y="422" type="curve"/>
      <point x="91" y="312" type="line"/>
      <point x="277" y="315"/>
      <point x="338" y="272"/>
      <point x="338" y="199" type="curve" smooth="yes"/>
      <point x="338" y="144"/>
      <point x="299" y="111"/>
    </contour>
  </outline>
</glyph>
<glyph name="four" format="2">
  <advance width="589"/>
  <unicode hex="0034"/>
  <outline>
    <contour>
      <point x="302" y="0" type="curve"/>
      <point x="496" y="0" type="line"/>
      <point x="476" y="40"/>
      <point x="469" y="95"/>
      <point x="469" y="349" type="curve" smooth="yes"/>
      <point x="469" y="589"/>
      <point x="476" y="641"/>
      <point x="496" y="680" type="curve"/>
      <point x="302" y="680" type="line"/>
      <point x="322" y="641"/>
      <point x="329" y="589"/>
      <point x="329" y="349" type="curve" smooth="yes"/>
      <point x="329" y="95"/>
      <point x="322" y="40"/>
    </contour>
    <contour>
      <point x="363" y="155" type="line" smooth="yes"/>
      <point x="504" y="155"/>
      <point x="530" y="151"/>
      <point x="564" y="134" type="curve"/>
      <point x="564" y="289" type="line"/>
      <point x="530" y="271"/>
      <point x="504" y="267"/>
      <point x="363" y="267" type="curve" smooth="yes"/>
      <point x="192" y="267" type="line"/>
      <point x="409" y="680" type="line"/>
      <point x="288" y="680" type="line"/>
      <point x="5" y="155" type="line"/>
    </contour>
  </outline>
</glyph>
<glyph name="five" format="2">
  <advance width="514"/>
  <unicode hex="0035"/>
  <outline>
    <contour>
      <point x="188" y="552" type="curve" smooth="yes"/>
      <point x="122" y="552" type="line"/>
      <point x="92" y="680" type="line"/>
      <point x="444" y="680" type="line"/>
      <point x="444" y="524" type="line"/>
      <point x="409" y="542"/>
      <point x="352" y="552"/>
    </contour>
    <contour>
      <point x="130" y="421" type="line"/>
      <point x="356" y="452"/>
      <point x="482" y="369"/>
      <point x="482" y="214" type="curve" smooth="yes"/>
      <point x="482" y="22"/>
      <point x="266" y="-63"/>
      <point x="45" y="14" type="curve"/>
      <point x="45" y="177" type="line"/>
      <point x="101" y="136"/>
      <point x="158" y="111"/>
      <point x="217" y="111" type="curve" smooth="yes"/>
      <point x="291" y="111"/>
      <point x="329" y="149"/>
      <point x="329" y="214" type="curve" smooth="yes"/>
      <point x="329" y="287"/>
      <point x="259" y="335"/>
      <point x="55" y="290" type="curve"/>
      <point x="91" y="680" type="line"/>
      <point x="222" y="680" type="line"/>
      <point x="195" y="390" type="line"/>
    </contour>
  </outline>
</glyph>
<glyph name="six" format="2">
  <advance width="560"/>
  <unicode hex="0036"/>
  <outline>
    <contour>
      <point x="288" y="107" type="curve" smooth="yes"/>
      <point x="233" y="107"/>
      <point x="196" y="152"/>
      <point x="196" y="217" type="curve" smooth="yes"/>
      <point x="196" y="279"/>
      <point x="233" y="321"/>
      <point x="288" y="321" type="curve" smooth="yes"/>
      <point x="343" y="321"/>
      <point x="381" y="278"/>
      <point x="381" y="214" type="curve" smooth="yes"/>
      <point x="381" y="152"/>
      <point x="343" y="107"/>
    </contour>
    <contour>
      <point x="486.0" y="501.0" type="curve"/>
      <point x="486.0" y="664.0" type="line"/>
      <point x="222.0" y="748.0"/>
      <point x="35.0" y="632.0"/>
      <point x="35.0" y="317.0" type="curve" smooth="yes"/>
      <point x="35.0" y="93.0"/>
      <point x="137.0" y="-14.0"/>
      <point x="287.0" y="-14.0" type="curve" smooth="yes"/>
      <point x="435.0" y="-14.0"/>
      <point x="530.0" y="88.0"/>
      <point x="530.0" y="221.0" type="curve" smooth="yes"/>
      <point x="530.0" y="370.0"/>
      <point x="424.0" y="440.0"/>
      <point x="318.0" y="440.0" type="curve" smooth="yes"/>
      <point x="241.0" y="440.0"/>
      <point x="165.0" y="397.0"/>
      <point x="131.0" y="322.0" type="curve"/>
      <point x="185.0" y="341.0" type="line"/>
      <point x="180.0" y="512.0"/>
      <point x="240.0" y="565.0"/>
      <point x="323.0" y="565.0" type="curve" smooth="yes"/>
      <point x="375.0" y="565.0"/>
      <point x="430.0" y="543.0"/>
    </contour>
  </outline>
</glyph>
<glyph name="seven" format="2">
  <advance width="493"/>
  <unicode hex="0037"/>
  <outline>
    <contour>
      <point x="284" y="554" type="curve" smooth="yes"/>
      <point x="380" y="554" type="line"/>
      <point x="410" y="680" type="line"/>
      <point x="35" y="680" type="line"/>
      <point x="35" y="524" type="line"/>
      <point x="70" y="542"/>
      <point x="120" y="554"/>
    </contour>
    <contour>
      <point x="222" y="349" type="line" smooth="yes"/>
      <point x="125" y="104"/>
      <point x="97" y="44"/>
      <point x="71" y="0" type="curve"/>
      <point x="280" y="0" type="line"/>
      <point x="263" y="49"/>
      <point x="264" y="101"/>
      <point x="362" y="349" type="curve" smooth="yes"/>
      <point x="493" y="680" type="line"/>
      <point x="353" y="680" type="line"/>
    </contour>
  </outline>
</glyph>
<glyph name="eight" format="2">
  <advance width="568"/>
  <unicode hex="0038"/>
  <outline>
    <contour>
      <point x="285.0" y="106.0" type="curve" smooth="yes"/>
      <point x="339.0" y="106.0"/>
      <point x="382.0" y="146.3756345177665"/>
      <point x="382.0" y="204.47715736040607" type="curve" smooth="yes"/>
      <point x="382.0" y="262.5786802030457"/>
      <point x="339.0" y="300.0"/>
      <point x="285.0" y="300.0" type="curve" smooth="yes"/>
      <point x="230.0" y="300.0"/>
      <point x="186.0" y="262.5786802030457"/>
      <point x="186.0" y="204.47715736040607" type="curve" smooth="yes"/>
      <point x="186.0" y="146.3756345177665"/>
      <point x="230.0" y="106.0"/>
    </contour>
    <contour>
      <point x="285" y="-18" type="curve" smooth="yes"/>
      <point x="141" y="-18"/>
      <point x="39" y="68"/>
      <point x="39" y="189" type="curve" smooth="yes"/>
      <point x="39" y="324"/>
      <point x="145" y="396"/>
      <point x="285" y="396" type="curve" smooth="yes"/>
      <point x="424" y="396"/>
      <point x="529" y="324"/>
      <point x="529" y="189" type="curve" smooth="yes"/>
      <point x="529" y="68"/>
      <point x="427" y="-18"/>
    </contour>
    <contour>
      <point x="285.0" y="412.0" type="curve" smooth="yes"/>
      <point x="332.0" y="412.0"/>
      <point x="365.0" y="445.3818181818182"/>
      <point x="365.0" y="492.5090909090909" type="curve" smooth="yes"/>
      <point x="365.0" y="540.6181818181818"/>
      <point x="332.0" y="574.0"/>
      <point x="285.0" y="574.0" type="curve" smooth="yes"/>
      <point x="237.0" y="574.0"/>
      <point x="203.0" y="540.6181818181818"/>
      <point x="203.0" y="492.5090909090909" type="curve" smooth="yes"/>
      <point x="203.0" y="445.3818181818182"/>
      <point x="238.0" y="412.0"/>
    </contour>
    <contour>
      <point x="285" y="318" type="curve" smooth="yes"/>
      <point x="156" y="318"/>
      <point x="58" y="381"/>
      <point x="58" y="503" type="curve" smooth="yes"/>
      <point x="58" y="614"/>
      <point x="155" y="698"/>
      <point x="285" y="698" type="curve" smooth="yes"/>
      <point x="414" y="698"/>
      <point x="510" y="614"/>
      <point x="510" y="503" type="curve" smooth="yes"/>
      <point x="510" y="381"/>
      <point x="414" y="318"/>
    </contour>
  </outline>
</glyph>
<glyph name="nine" format="2">
  <advance width="565"/>
  <unicode hex="0039"/>
  <outline>
    <contour>
      <point x="79" y="177" type="curve"/>
      <point x="79" y="14" type="line"/>
      <point x="343" y="-70"/>
      <point x="530" y="46"/>
      <point x="530" y="361" type="curve" smooth="yes"/>
      <point x="530" y="585"/>
      <point x="428" y="696"/>
      <point x="278" y="696" type="curve" smooth="yes"/>
      <point x="130" y="696"/>
      <point x="35" y="592"/>
      <point x="35" y="459" type="curve" smooth="yes"/>
      <point x="35.0" y="310"/>
      <point x="141.0" y="238.0"/>
      <point x="247" y="238" type="curve" smooth="yes"/>
      <point x="324.0" y="238.0"/>
      <point x="400" y="281"/>
      <point x="434" y="356" type="curve"/>
      <point x="380" y="337" type="line"/>
      <point x="385" y="166"/>
      <point x="325" y="113"/>
      <point x="242" y="113" type="curve" smooth="yes"/>
      <point x="190" y="113"/>
      <point x="135" y="135"/>
    </contour>
    <contour>
      <point x="277" y="571" type="curve" smooth="yes"/>
      <point x="332" y="571"/>
      <point x="369" y="526"/>
      <point x="369" y="461" type="curve" smooth="yes"/>
      <point x="369" y="399"/>
      <point x="332" y="357"/>
      <point x="277" y="357" type="curve" smooth="yes"/>
      <point x="222" y="357"/>
      <point x="184" y="400"/>
      <point x="184" y="464" type="curve" smooth="yes"/>
      <point x="184" y="526"/>
      <point x="222" y="571"/>
    </contour>
  </outline>
</glyph>
<glyph name="semicolon" format="2">
  <advance width="271"/>
  <unicode hex="003B"/>
  <outline>
    <contour>
      <point x="55.0" y="362.0" type="line"/>
      <point x="216.0" y="362.0" type="line"/>
      <point x="216.0" y="523.0" type="line"/>
      <point x="55.0" y="523.0" type="line"/>
    </contour>
    <contour>
      <point x="55" y="161" type="curve"/>
      <point x="222" y="161" type="line"/>
      <point x="232" y="50"/>
      <point x="182" y="-80"/>
      <point x="20" y="-130" type="curve"/>
      <point x="78" y="-11"/>
      <point x="79" y="72"/>
    </contour>
  </outline>
</glyph>
<glyph name="A" format="2">
  <advance width="690"/>
  <unicode hex="0041"/>
  <outline>
    <contour>
      <point x="140" y="146" type="line"/>
      <point x="503" y="146" type="line"/>
      <point x="503" y="271" type="line"/>
      <point x="140" y="271" type="line"/>
    </contour>
    <contour>
      <point x="283" y="349" type="curve" smooth="yes"/>
      <point x="404" y="680" type="line"/>
      <point x="268" y="680" type="line"/>
      <point x="266" y="641"/>
      <point x="245" y="588"/>
      <point x="155" y="349" type="curve" smooth="yes"/>
      <point x="59" y="95"/>
      <point x="35" y="40"/>
      <point x="5" y="0" type="curve"/>
      <point x="204" y="0" type="line"/>
      <point x="186" y="48"/>
      <point x="190" y="95"/>
    </contour>
    <contour>
      <point x="387" y="349" type="line" smooth="yes"/>
      <point x="481" y="95"/>
      <point x="484" y="48"/>
      <point x="466" y="0" type="curve"/>
      <point x="685" y="0" type="line"/>
      <point x="655" y="40"/>
      <point x="631" y="95"/>
      <point x="535" y="349" type="curve" smooth="yes"/>
      <point x="445" y="588"/>
      <point x="429" y="641"/>
      <point x="422" y="680" type="curve"/>
      <point x="408" y="680" type="line"/>
      <point x="266" y="680" type="line"/>
    </contour>
  </outline>
</glyph>
<glyph name="B" format="2">
  <advance width="586"/>
  <unicode hex="0042"/>
  <outline>
    <contour>
      <point x="52" y="0" type="curve"/>
      <point x="249" y="0" type="line"/>
      <point x="229" y="40"/>
      <point x="222" y="95"/>
      <point x="222" y="349" type="curve" smooth="yes"/>
      <point x="222" y="589"/>
      <point x="229" y="641"/>
      <point x="249" y="680" type="curve"/>
      <point x="52" y="680" type="line"/>
      <point x="72" y="641"/>
      <point x="79" y="589"/>
      <point x="79" y="349" type="curve" smooth="yes"/>
      <point x="79" y="95"/>
      <point x="72" y="40"/>
    </contour>
    <contour>
      <point x="188" y="317" type="line"/>
      <point x="305" y="317" type="line" smooth="yes"/>
      <point x="437.0" y="317.0"/>
      <point x="531.0" y="383.77245508982037"/>
      <point x="531" y="494" type="curve" smooth="yes"/>
      <point x="531.0" y="605.030612244898"/>
      <point x="441.0" y="680"/>
      <point x="294" y="680" type="curve" smooth="yes"/>
      <point x="188" y="680" type="line"/>
      <point x="188" y="555" type="line"/>
      <point x="298" y="555" type="line" smooth="yes"/>
      <point x="348.8604651162791" y="555"/>
      <point x="379.0" y="526.0"/>
      <point x="379" y="481" type="curve" smooth="yes"/>
      <point x="379.0" y="436.0"/>
      <point x="344.89473684210526" y="407"/>
      <point x="298" y="407" type="curve" smooth="yes"/>
      <point x="188" y="407" type="line"/>
    </contour>
    <contour>
      <point x="208.0" y="0.0" type="line"/>
      <point x="318.0" y="0.0" type="line" smooth="yes"/>
      <point x="455.9192825112108" y="0.0"/>
      <point x="551.0" y="79.94202898550725"/>
      <point x="551.0" y="197.0" type="curve" smooth="yes"/>
      <point x="551.0" y="313.25"/>
      <point x="454.0" y="383.0"/>
      <point x="301.0" y="383.0" type="curve" smooth="yes"/>
      <point x="208.0" y="383.0" type="line"/>
      <point x="208.0" y="288.0" type="line"/>
      <point x="308.0" y="288.0" type="line" smooth="yes"/>
      <point x="364.875" y="288.0"/>
      <point x="399.0" y="257.0"/>
      <point x="399.0" y="206.0" type="curve" smooth="yes"/>
      <point x="399.0" y="155.0"/>
      <point x="360.90697674418607" y="125.0"/>
      <point x="308.0" y="125.0" type="curve" smooth="yes"/>
      <point x="208.0" y="125.0" type="line"/>
    </contour>
  </outline>
</glyph>
<glyph name="C" format="2">
  <advance width="587"/>
  <unicode hex="0043"/>
  <outline>
    <contour>
      <point x="189.0" y="340.0" type="curve" smooth="yes"/>
      <point x="189.0" y="480.0"/>
      <point x="262" y="566.0"/>
      <point x="368" y="566.0" type="curve" smooth="yes"/>
      <point x="434" y="566.0"/>
      <point x="498" y="534.0"/>
      <point x="547.0" y="490.0" type="curve"/>
      <point x="547.0" y="658.0" type="line"/>
      <point x="498" y="680.0"/>
      <point x="442" y="692.0"/>
      <point x="381" y="692.0" type="curve" smooth="yes"/>
      <point x="180" y="692.0"/>
      <point x="34.0" y="545.0"/>
      <point x="34.0" y="340.0" type="curve" smooth="yes"/>
      <point x="34" y="135.0"/>
      <point x="180.0" y="-12.0"/>
      <point x="381.0" y="-12.0" type="curve" smooth="yes"/>
      <point x="442.0" y="-12.0"/>
      <point x="498.0" y="0.0"/>
      <point x="547.0" y="22.0" type="curve"/>
      <point x="547.0" y="190.0" type="line"/>
      <point x="498.0" y="146.0"/>
      <point x="434.0" y="114.0"/>
      <point x="368.0" y="114.0" type="curve" smooth="yes"/>
      <point x="262.0" y="114.0"/>
      <point x="189.0" y="200.0"/>
    </contour>
  </outline>
</glyph>
<glyph name="D" format="2">
  <advance width="688"/>
  <unicode hex="0044"/>
  <outline>
    <contour>
      <point x="52" y="0" type="curve"/>
      <point x="249" y="0" type="line"/>
      <point x="229" y="40"/>
      <point x="222" y="95"/>
      <point x="222" y="349" type="curve" smooth="yes"/>
      <point x="222" y="589"/>
      <point x="229" y="641"/>
      <point x="249" y="680" type="curve"/>
      <point x="52" y="680" type="line"/>
      <point x="72" y="641"/>
      <point x="79" y="589"/>
      <point x="79" y="349" type="curve" smooth="yes"/>
      <point x="79" y="95"/>
      <point x="72" y="40"/>
    </contour>
    <contour>
      <point x="301" y="555" type="line" smooth="yes"/>
      <point x="425.2361809045226" y="555"/>
      <point x="502.0" y="471.0"/>
      <point x="502" y="341" type="curve" smooth="yes"/>
      <point x="502.0" y="210.0"/>
      <point x="425.2361809045226" y="125"/>
      <point x="301" y="125" type="curve" smooth="yes"/>
      <point x="150.0" y="125.0" type="line"/>
      <point x="150.0" y="0.0" type="line"/>
      <point x="311" y="0" type="line" smooth="yes"/>
      <point x="509.0" y="0.0"/>
      <point x="654.0" y="134.0"/>
      <point x="654" y="341" type="curve" smooth="yes"/>
      <point x="654.0" y="547.0"/>
      <point x="509.0" y="680.0"/>
      <point x="311" y="680" type="curve" smooth="yes"/>
      <point x="150.0" y="680.0" type="line"/>
      <point x="150.0" y="555.0" type="line"/>
    </contour>
  </outline>
</glyph>
<glyph name="E" format="2">
  <advance width="544"/>
  <unicode hex="0045"/>
  <outline>
    <contour>
      <point x="52" y="0" type="curve"/>
      <point x="249" y="0" type="line"/>
      <point x="229" y="40"/>
      <point x="222" y="95"/>
      <point x="222" y="349" type="curve" smooth="yes"/>
      <point x="222" y="589"/>
      <point x="229" y="641"/>
      <point x="249" y="680" type="curve"/>
      <point x="52" y="680" type="line"/>
      <point x="72" y="641"/>
      <point x="79" y="589"/>
      <point x="79" y="349" type="curve" smooth="yes"/>
      <point x="79" y="95"/>
      <point x="72" y="40"/>
    </contour>
    <contour>
      <point x="185.0" y="126.0" type="curve"/>
      <point x="161.0" y="0.0" type="line"/>
      <point x="469.0" y="0.0" type="line"/>
      <point x="489.0" y="166.0" type="line"/>
      <point x="450.0" y="135.0"/>
      <point x="397.0" y="120.0"/>
    </contour>
    <contour>
      <point x="185.0" y="554.0" type="line"/>
      <point x="392.0" y="560.0"/>
      <point x="436.0" y="542.0"/>
      <point x="471.0" y="524.0" type="curve"/>
      <point x="471.0" y="680.0" type="line"/>
      <point x="161.0" y="680.0" type="line"/>
    </contour>
    <contour>
      <point x="153.0" y="290" type="line"/>
      <point x="374" y="290"/>
      <point x="410" y="286"/>
      <point x="444" y="269" type="curve"/>
      <point x="444" y="432.0" type="line"/>
      <point x="410" y="414"/>
      <point x="374" y="410"/>
      <point x="153.0" y="410" type="curve"/>
    </contour>
  </outline>
</glyph>
<glyph name="F" format="2">
  <advance width="516"/>
  <unicode hex="0046"/>
  <outline>
    <contour>
      <point x="52" y="0" type="curve"/>
      <point x="249" y="0" type="line"/>
      <point x="229" y="40"/>
      <point x="222" y="95"/>
      <point x="222" y="349" type="curve" smooth="yes"/>
      <point x="222" y="589"/>
      <point x="229" y="641"/>
      <point x="249" y="680" type="curve"/>
      <point x="52" y="680" type="line"/>
      <point x="72" y="641"/>
      <point x="79" y="589"/>
      <point x="79" y="349" type="curve" smooth="yes"/>
      <point x="79" y="95"/>
      <point x="72" y="40"/>
    </contour>
    <contour>
      <point x="185.0" y="554.0" type="line"/>
      <point x="392.0" y="560.0"/>
      <point x="436.0" y="542.0"/>
      <point x="471.0" y="524.0" type="curve"/>
      <point x="471.0" y="680.0" type="line"/>
      <point x="161.0" y="680.0" type="line"/>
    </contour>
    <contour>
      <point x="153.0" y="270" type="line"/>
      <point x="374" y="270"/>
      <point x="410" y="266"/>
      <point x="444" y="249" type="curve"/>
      <point x="444" y="412.0" type="line"/>
      <point x="410" y="394"/>
      <point x="374" y="390"/>
      <point x="153.0" y="390" type="curve"/>
    </contour>
  </outline>
</glyph>
<glyph name="G" format="2">
  <advance width="662"/>
  <unicode hex="0047"/>
  <outline>
    <contour>
      <point x="605" y="40" type="curve"/>
      <point x="525" y="6"/>
      <point x="451" y="-15"/>
      <point x="372" y="-15" type="curve" smooth="yes"/>
      <point x="165" y="-15"/>
      <point x="34" y="136"/>
      <point x="34" y="334" type="curve" smooth="yes"/>
      <point x="34" y="543"/>
      <point x="173" y="692"/>
      <point x="385" y="692" type="curve" smooth="yes"/>
      <point x="452" y="692"/>
      <point x="521" y="677"/>
      <point x="589" y="652" type="curve"/>
      <point x="589" y="484" type="line"/>
      <point x="526.6654877326816" y="539.4084553487274"/>
      <point x="453.0" y="565.0"/>
      <point x="382" y="565" type="curve" smooth="yes"/>
      <point x="260.0" y="565.0"/>
      <point x="186.0" y="478.7699115044248"/>
      <point x="186" y="341" type="curve" smooth="yes"/>
      <point x="186.0" y="203.21397379912665"/>
      <point x="260.0" y="114.0"/>
      <point x="382" y="114" type="curve" smooth="yes"/>
      <point x="453.0" y="114.0"/>
      <point x="526.6654877326816" y="139.59154465127256"/>
      <point x="589" y="195" type="curve"/>
      <point x="469" y="64" type="line"/>
      <point x="465" y="271"/>
      <point x="457" y="315"/>
      <point x="439" y="350" type="curve"/>
      <point x="617" y="350" type="line"/>
      <point x="609" y="314"/>
      <point x="604" y="265"/>
    </contour>
  </outline>
</glyph>
<glyph name="J" format="2">
  <advance width="467"/>
  <unicode hex="004A"/>
  <outline>
    <contour>
      <point x="250" y="236" type="line" smooth="yes"/>
      <point x="250" y="156.35"/>
      <point x="213.0" y="118.0"/>
      <point x="153" y="118" type="curve" smooth="yes"/>
      <point x="112.0" y="118.0"/>
      <point x="67.29127237552638" y="136.73825794216003"/>
      <point x="20" y="186" type="curve"/>
      <point x="20" y="15" type="line"/>
      <point x="72" y="-2"/>
      <point x="122" y="-10"/>
      <point x="165" y="-10" type="curve" smooth="yes"/>
      <point x="310" y="-8"/>
      <point x="393" y="93"/>
      <point x="393" y="231" type="curve" smooth="yes"/>
      <point x="393" y="349" type="line"/>
      <point x="393" y="589"/>
      <point x="400" y="641"/>
      <point x="420" y="680" type="curve"/>
      <point x="223" y="680" type="line"/>
      <point x="243" y="641"/>
      <point x="250" y="589"/>
      <point x="250" y="349" type="curve"/>
    </contour>
  </outline>
</glyph>
<glyph name="K" format="2">
  <advance width="658"/>
  <unicode hex="004B"/>
  <outline>
    <contour>
      <point x="52" y="0" type="curve"/>
      <point x="249" y="0" type="line"/>
      <point x="229" y="40"/>
      <point x="222" y="95"/>
      <point x="222" y="349" type="curve" smooth="yes"/>
      <point x="222" y="589"/>
      <point x="229" y="641"/>
      <point x="249" y="680" type="curve"/>
      <point x="52" y="680" type="line"/>
      <point x="72" y="641"/>
      <point x="79" y="589"/>
      <point x="79" y="349" type="curve" smooth="yes"/>
      <point x="79" y="95"/>
      <point x="72" y="40"/>
    </contour>
    <contour>
      <point x="430" y="0" type="curve"/>
      <point x="663" y="0" type="line"/>
      <point x="612" y="40"/>
      <point x="552" y="97"/>
      <point x="347" y="373" type="curve"/>
      <point x="191" y="349" type="line"/>
      <point x="386" y="95"/>
      <point x="422" y="40"/>
    </contour>
    <contour>
      <point x="442.0" y="680.0" type="line"/>
      <point x="433" y="640.0"/>
      <point x="397" y="595.0"/>
      <point x="175" y="341.0" type="curve"/>
      <point x="332" y="336.0" type="line"/>
      <point x="553" y="590.0"/>
      <point x="600" y="640.0"/>
      <point x="655.0" y="680.0" type="curve"/>
    </contour>
  </outline>
</glyph>
<glyph name="L" format="2">
  <advance width="494"/>
  <unicode hex="004C"/>
  <outline>
    <contour>
      <point x="52" y="0" type="curve"/>
      <point x="249" y="0" type="line"/>
      <point x="229" y="40"/>
      <point x="222" y="95"/>
      <point x="222" y="349" type="curve" smooth="yes"/>
      <point x="222" y="589"/>
      <point x="229" y="641"/>
      <point x="249" y="680" type="curve"/>
      <point x="52" y="680" type="line"/>
      <point x="72" y="641"/>
      <point x="79" y="589"/>
      <point x="79" y="349" type="curve" smooth="yes"/>
      <point x="79" y="95"/>
      <point x="72" y="40"/>
    </contour>
    <contour>
      <point x="165.0" y="126.0" type="curve"/>
      <point x="141.0" y="0.0" type="line"/>
      <point x="449.0" y="0.0" type="line"/>
      <point x="469.0" y="166.0" type="line"/>
      <point x="430.0" y="135.0"/>
      <point x="377.0" y="120.0"/>
    </contour>
  </outline>
</glyph>
<glyph name="M" format="2">
  <advance width="854"/>
  <unicode hex="004D"/>
  <outline>
    <contour>
      <point x="52" y="0" type="curve"/>
      <point x="235" y="0" type="line"/>
      <point x="215" y="40"/>
      <point x="208" y="95"/>
      <point x="208" y="349" type="curve" smooth="yes"/>
      <point x="208" y="589"/>
      <point x="215" y="641"/>
      <point x="235" y="680" type="curve"/>
      <point x="52" y="680" type="line"/>
      <point x="72" y="641"/>
      <point x="79" y="589"/>
      <point x="79" y="349" type="curve" smooth="yes"/>
      <point x="79" y="95"/>
      <point x="72" y="40"/>
    </contour>
    <contour>
      <point x="614" y="0" type="curve"/>
      <point x="802" y="0" type="line"/>
      <point x="782" y="40"/>
      <point x="775" y="95"/>
      <point x="775" y="349" type="curve" smooth="yes"/>
      <point x="775" y="589"/>
      <point x="782" y="641"/>
      <point x="802" y="680" type="curve"/>
      <point x="614" y="680" type="line"/>
      <point x="634" y="641"/>
      <point x="641" y="589"/>
      <point x="641" y="349" type="curve" smooth="yes"/>
      <point x="641" y="95"/>
      <point x="634" y="40"/>
    </contour>
    <contour>
      <point x="472" y="331" type="curve" smooth="yes"/>
      <point x="368" y="0" type="line"/>
      <point x="495" y="0" type="line"/>
      <point x="495" y="39"/>
      <point x="513" y="92"/>
      <point x="592" y="331" type="curve" smooth="yes"/>
      <point x="673" y="585"/>
      <point x="694" y="640"/>
      <point x="723" y="680" type="curve"/>
      <point x="533" y="680" type="line"/>
      <point x="555" y="631"/>
      <point x="550" y="584"/>
    </contour>
    <contour>
      <point x="392" y="331" type="line" smooth="yes"/>
      <point x="316" y="586"/>
      <point x="311" y="631"/>
      <point x="334" y="680" type="curve"/>
      <point x="126" y="680" type="line"/>
      <point x="154" y="640"/>
      <point x="175" y="585"/>
      <point x="254" y="331" type="curve" smooth="yes"/>
      <point x="331" y="92"/>
      <point x="344" y="39"/>
      <point x="348" y="0" type="curve"/>
      <point x="493" y="0" type="line"/>
    </contour>
  </outline>
</glyph>
<glyph name="N" format="2">
  <advance width="689"/>
  <unicode hex="004E"/>
  <outline>
    <contour>
      <point x="637" y="0" type="line"/>
      <point x="617" y="40"/>
      <point x="610" y="95"/>
      <point x="610" y="349" type="curve" smooth="yes"/>
      <point x="610" y="589"/>
      <point x="617" y="641"/>
      <point x="637" y="680" type="curve"/>
      <point x="450" y="680" type="line"/>
      <point x="470" y="641"/>
      <point x="477" y="589"/>
      <point x="477" y="349" type="curve" smooth="yes"/>
      <point x="477" y="204" type="line"/>
      <point x="548" y="195" type="line"/>
      <point x="185" y="680" type="line"/>
      <point x="52" y="680" type="line"/>
      <point x="72" y="641"/>
      <point x="79" y="589"/>
      <point x="79" y="349" type="curve" smooth="yes"/>
      <point x="79" y="95"/>
      <point x="72" y="40"/>
      <point x="52" y="0" type="curve"/>
      <point x="239" y="0" type="line"/>
      <point x="219" y="40"/>
      <point x="212" y="95"/>
      <point x="212" y="349" type="curve" smooth="yes"/>
      <point x="212" y="496" type="line"/>
      <point x="142" y="496" type="line"/>
      <point x="514" y="0" type="line"/>
    </contour>
  </outline>
</glyph>
<glyph name="O" format="2">
  <advance width="734"/>
  <unicode hex="004F"/>
  <outline>
    <contour>
      <point x="367" y="115" type="curve" smooth="yes"/>
      <point x="475.0" y="115.0"/>
      <point x="548.0" y="201.23684210526315"/>
      <point x="548" y="341" type="curve" smooth="yes"/>
      <point x="548.0" y="479.76106194690266"/>
      <point x="475.0" y="565.0"/>
      <point x="367" y="565" type="curve" smooth="yes"/>
      <point x="259.0" y="565.0"/>
      <point x="186.0" y="480.75221238938053"/>
      <point x="186" y="341" type="curve" smooth="yes"/>
      <point x="186.0" y="201.23684210526315"/>
      <point x="259.0" y="115.0"/>
    </contour>
    <contour>
      <point x="367" y="-12" type="curve" smooth="yes"/>
      <point x="172" y="-12"/>
      <point x="34" y="135"/>
      <point x="34" y="341" type="curve" smooth="yes"/>
      <point x="34" y="546"/>
      <point x="172" y="692"/>
      <point x="367" y="692" type="curve" smooth="yes"/>
      <point x="561" y="692"/>
      <point x="700" y="546"/>
      <point x="700" y="341" type="curve" smooth="yes"/>
      <point x="700" y="135"/>
      <point x="561" y="-12"/>
    </contour>
  </outline>
</glyph>
<glyph name="P" format="2">
  <advance width="593"/>
  <unicode hex="0050"/>
  <outline>
    <contour>
      <point x="52" y="0" type="curve"/>
      <point x="249" y="0" type="line"/>
      <point x="229" y="40"/>
      <point x="222" y="95"/>
      <point x="222" y="349" type="curve" smooth="yes"/>
      <point x="222" y="589"/>
      <point x="229" y="641"/>
      <point x="249" y="680" type="curve"/>
      <point x="52" y="680" type="line"/>
      <point x="72" y="641"/>
      <point x="79" y="589"/>
      <point x="79" y="349" type="curve" smooth="yes"/>
      <point x="79" y="95"/>
      <point x="72" y="40"/>
    </contour>
    <contour>
      <point x="188" y="237" type="line"/>
      <point x="325" y="237" type="line" smooth="yes"/>
      <point x="466.0" y="237"/>
      <point x="563.0" y="327.02764976958525"/>
      <point x="563" y="459" type="curve" smooth="yes"/>
      <point x="563.0" y="591.0132743362832"/>
      <point x="467.19834710743805" y="680"/>
      <point x="311" y="680" type="curve" smooth="yes"/>
      <point x="188" y="680" type="line"/>
      <point x="188" y="555" type="line"/>
      <point x="313" y="555" type="line" smooth="yes"/>
      <point x="377.5164835164835" y="555"/>
      <point x="416.0" y="516.0"/>
      <point x="416" y="456" type="curve" smooth="yes"/>
      <point x="416.0" y="396.0"/>
      <point x="377.16483516483515" y="357"/>
      <point x="323" y="357" type="curve" smooth="yes"/>
      <point x="188" y="357" type="line"/>
    </contour>
  </outline>
</glyph>
<glyph name="Q" format="2">
  <advance width="734"/>
  <unicode hex="0051"/>
  <outline>
    <contour>
      <point x="367" y="115" type="curve" smooth="yes"/>
      <point x="475.0" y="115.0"/>
      <point x="548.0" y="201.23684210526315"/>
      <point x="548" y="341" type="curve" smooth="yes"/>
      <point x="548.0" y="479.76106194690266"/>
      <point x="475.0" y="565.0"/>
      <point x="367" y="565" type="curve" smooth="yes"/>
      <point x="259.0" y="565.0"/>
      <point x="186.0" y="480.75221238938053"/>
      <point x="186" y="341" type="curve" smooth="yes"/>
      <point x="186.0" y="201.23684210526315"/>
      <point x="259.0" y="115.0"/>
    </contour>
    <contour>
      <point x="367" y="-12" type="curve" smooth="yes"/>
      <point x="174" y="-12"/>
      <point x="34" y="135"/>
      <point x="34" y="341" type="curve" smooth="yes"/>
      <point x="34" y="546"/>
      <point x="174" y="692"/>
      <point x="367" y="692" type="curve" smooth="yes"/>
      <point x="559" y="692"/>
      <point x="700" y="546"/>
      <point x="700" y="341" type="curve" smooth="yes"/>
      <point x="700" y="135"/>
      <point x="559" y="-12"/>
    </contour>
    <contour>
      <point x="557" y="87" type="line"/>
      <point x="620" y="-13"/>
      <point x="664" y="-56"/>
      <point x="804" y="-101" type="curve"/>
      <point x="728" y="-214"/>
      <point x="535" y="-167"/>
      <point x="429" y="33" type="curve"/>
    </contour>
  </outline>
</glyph>
<glyph name="R" format="2">
  <advance width="643"/>
  <unicode hex="0052"/>
  <outline>
    <contour>
      <point x="57" y="0" type="curve"/>
      <point x="254" y="0" type="line"/>
      <point x="234" y="40"/>
      <point x="227" y="95"/>
      <point x="227" y="349" type="curve" smooth="yes"/>
      <point x="227" y="589"/>
      <point x="234" y="641"/>
      <point x="254" y="680" type="curve"/>
      <point x="57" y="680" type="line"/>
      <point x="77" y="641"/>
      <point x="84" y="589"/>
      <point x="84" y="349" type="curve" smooth="yes"/>
      <point x="84" y="95"/>
      <point x="77" y="40"/>
    </contour>
    <contour>
      <point x="193" y="247" type="line"/>
      <point x="330" y="247" type="line" smooth="yes"/>
      <point x="465" y="247"/>
      <point x="558" y="335"/>
      <point x="558" y="464" type="curve" smooth="yes"/>
      <point x="558" y="593"/>
      <point x="466" y="680"/>
      <point x="316" y="680" type="curve" smooth="yes"/>
      <point x="193" y="680" type="line"/>
      <point x="193" y="555" type="line"/>
      <point x="318" y="555" type="line" smooth="yes"/>
      <point x="376" y="555"/>
      <point x="410" y="518"/>
      <point x="410" y="461" type="curve" smooth="yes"/>
      <point x="410" y="404"/>
      <point x="376" y="367"/>
      <point x="328" y="367" type="curve" smooth="yes"/>
      <point x="193" y="367" type="line"/>
    </contour>
    <contour>
      <point x="442" y="0" type="curve"/>
      <point x="663" y="0" type="line"/>
      <point x="617" y="40"/>
      <point x="573" y="95"/>
      <point x="405" y="349" type="curve"/>
      <point x="252" y="349" type="line"/>
      <point x="411" y="95"/>
      <point x="439" y="40"/>
    </contour>
  </outline>
</glyph>
<glyph name="S" format="2">
  <advance width="513"/>
  <unicode hex="0053"/>
  <outline>
    <contour>
      <point x="344" y="184" type="curve" smooth="yes"/>
      <point x="344" y="144"/>
      <point x="312" y="113"/>
      <point x="244" y="113" type="curve" smooth="yes"/>
      <point x="179" y="113"/>
      <point x="101" y="135"/>
      <point x="42" y="181" type="curve"/>
      <point x="42" y="15" type="line"/>
      <point x="109" y="-3"/>
      <point x="172" y="-13"/>
      <point x="232" y="-13" type="curve" smooth="yes"/>
      <point x="384" y="-14"/>
      <point x="493" y="60"/>
      <point x="493" y="200" type="curve" smooth="yes"/>
      <point x="493" y="399"/>
      <point x="189" y="389"/>
      <point x="189" y="498" type="curve" smooth="yes"/>
      <point x="189" y="536"/>
      <point x="218" y="566"/>
      <point x="280" y="566" type="curve" smooth="yes"/>
      <point x="339" y="566"/>
      <point x="410" y="544"/>
      <point x="464" y="500" type="curve"/>
      <point x="464" y="664" type="line"/>
      <point x="403" y="681"/>
      <point x="347" y="690"/>
      <point x="293" y="690" type="curve" smooth="yes"/>
      <point x="140" y="690"/>
      <point x="38" y="614"/>
      <point x="38" y="482" type="curve" smooth="yes"/>
      <point x="38" y="278"/>
      <point x="344" y="292"/>
    </contour>
  </outline>
</glyph>
<glyph name="T" format="2">
  <advance width="529"/>
  <unicode hex="0054"/>
  <outline>
    <contour>
      <point x="166" y="0" type="curve"/>
      <point x="363" y="0" type="line"/>
      <point x="343" y="40"/>
      <point x="336" y="95"/>
      <point x="336" y="349" type="curve" smooth="yes"/>
      <point x="336" y="589"/>
      <point x="343" y="641"/>
      <point x="363" y="680" type="curve"/>
      <point x="166" y="680" type="line"/>
      <point x="186" y="641"/>
      <point x="193" y="589"/>
      <point x="193" y="349" type="curve" smooth="yes"/>
      <point x="193" y="95"/>
      <point x="186" y="40"/>
    </contour>
    <contour>
      <point x="264" y="554" type="curve" smooth="yes"/>
      <point x="418" y="554"/>
      <point x="469" y="542"/>
      <point x="504" y="524" type="curve"/>
      <point x="504" y="680" type="line"/>
      <point x="25" y="680" type="line"/>
      <point x="25" y="524" type="line"/>
      <point x="60" y="542"/>
      <point x="110" y="554"/>
    </contour>
  </outline>
</glyph>
<glyph name="U" format="2">
  <advance width="684"/>
  <unicode hex="0055"/>
  <outline>
    <contour>
      <point x="342" y="-16" type="curve" smooth="yes"/>
      <point x="185" y="-16"/>
      <point x="74" y="74.0"/>
      <point x="74" y="223" type="curve" smooth="yes"/>
      <point x="74" y="349" type="line" smooth="yes"/>
      <point x="74" y="589"/>
      <point x="67" y="641"/>
      <point x="47" y="680" type="curve"/>
      <point x="244" y="680" type="line"/>
      <point x="224" y="641"/>
      <point x="217" y="589"/>
      <point x="217" y="349" type="curve" smooth="yes"/>
      <point x="217" y="244" type="line" smooth="yes"/>
      <point x="217" y="165.203007518797"/>
      <point x="265.0" y="113.0"/>
      <point x="342" y="113" type="curve" smooth="yes"/>
      <point x="419.0" y="113.0"/>
      <point x="467" y="165.203007518797"/>
      <point x="467" y="244" type="curve" smooth="yes"/>
      <point x="467" y="349" type="line" smooth="yes"/>
      <point x="467" y="589"/>
      <point x="460" y="641"/>
      <point x="440" y="680" type="curve"/>
      <point x="637" y="680" type="line"/>
      <point x="617" y="641"/>
      <point x="610" y="589"/>
      <point x="610" y="349" type="curve" smooth="yes"/>
      <point x="610" y="223" type="line" smooth="yes"/>
      <point x="610.0" y="74.0"/>
      <point x="499" y="-16"/>
    </contour>
  </outline>
</glyph>
<glyph name="V" format="2">
  <advance width="666"/>
  <unicode hex="0056"/>
  <outline>
    <contour>
      <point x="388" y="331" type="curve" smooth="yes"/>
      <point x="274" y="0" type="line"/>
      <point x="410" y="0" type="line"/>
      <point x="411" y="39"/>
      <point x="431" y="92"/>
      <point x="517" y="331" type="curve" smooth="yes"/>
      <point x="609" y="585"/>
      <point x="632" y="640"/>
      <point x="661" y="680" type="curve"/>
      <point x="462" y="680" type="line"/>
      <point x="483" y="631"/>
      <point x="475" y="585"/>
    </contour>
    <contour>
      <point x="298" y="331" type="line" smooth="yes"/>
      <point x="210" y="586"/>
      <point x="203" y="631"/>
      <point x="224" y="680" type="curve"/>
      <point x="5" y="680" type="line"/>
      <point x="34" y="640"/>
      <point x="57" y="585"/>
      <point x="149" y="331" type="curve" smooth="yes"/>
      <point x="235" y="92"/>
      <point x="250" y="39"/>
      <point x="256" y="0" type="curve"/>
      <point x="270" y="0" type="line"/>
      <point x="412" y="0" type="line"/>
    </contour>
  </outline>
</glyph>
<glyph name="W" format="2">
  <advance width="944"/>
  <unicode hex="0057"/>
  <outline>
    <contour>
      <point x="283" y="331" type="line" smooth="yes"/>
      <point x="213" y="586"/>
      <point x="209" y="631"/>
      <point x="234" y="680" type="curve"/>
      <point x="15" y="680" type="line"/>
      <point x="41" y="640"/>
      <point x="60" y="585"/>
      <point x="134" y="331" type="curve" smooth="yes"/>
      <point x="203" y="92"/>
      <point x="215" y="39"/>
      <point x="218" y="0" type="curve"/>
      <point x="232" y="0" type="line"/>
      <point x="374" y="0" type="line"/>
    </contour>
    <contour>
      <point x="681" y="331" type="curve" smooth="yes"/>
      <point x="590" y="0" type="line"/>
      <point x="726" y="0" type="line"/>
      <point x="724" y="39"/>
      <point x="741" y="92"/>
      <point x="810" y="331" type="curve" smooth="yes"/>
      <point x="884" y="585"/>
      <point x="903" y="640"/>
      <point x="929" y="680" type="curve"/>
      <point x="730" y="680" type="line"/>
      <point x="755" y="631"/>
      <point x="750" y="585"/>
    </contour>
    <contour>
      <point x="388" y="680" type="line"/>
      <point x="413" y="631"/>
      <point x="409" y="585"/>
      <point x="339" y="331" type="curve" smooth="yes"/>
      <point x="248" y="0" type="line"/>
      <point x="377" y="0" type="line"/>
      <point x="375" y="39"/>
      <point x="392" y="92"/>
      <point x="461" y="331" type="curve" smooth="yes"/>
      <point x="498" y="459"/>
      <point x="521" y="536"/>
      <point x="539" y="587" type="curve"/>
      <point x="426" y="542" type="line"/>
      <point x="441" y="493"/>
      <point x="461" y="426"/>
      <point x="489" y="331" type="curve" smooth="yes"/>
      <point x="558" y="92"/>
      <point x="570" y="39"/>
      <point x="573" y="0" type="curve"/>
      <point x="584" y="0" type="line"/>
      <point x="716" y="0" type="line"/>
      <point x="625" y="331" type="line" smooth="yes"/>
      <point x="555" y="586"/>
      <point x="551" y="631"/>
      <point x="576" y="680" type="curve"/>
    </contour>
  </outline>
</glyph>
<glyph name="X" format="2">
  <advance width="667"/>
  <unicode hex="0058"/>
  <outline>
    <contour>
      <point x="374" y="300" type="line"/>
      <point x="230" y="88"/>
      <point x="213" y="45"/>
      <point x="215" y="0" type="curve"/>
      <point x="5" y="0" type="line"/>
      <point x="48" y="40"/>
      <point x="90" y="95"/>
      <point x="258" y="349" type="curve"/>
      <point x="300" y="410" type="line"/>
      <point x="426" y="597"/>
      <point x="441" y="637"/>
      <point x="439" y="680" type="curve"/>
      <point x="649" y="680" type="line"/>
      <point x="606" y="640"/>
      <point x="564" y="586"/>
      <point x="396" y="332" type="curve"/>
    </contour>
    <contour>
      <point x="416" y="349" type="line"/>
      <point x="575" y="95"/>
      <point x="619" y="40"/>
      <point x="662" y="0" type="curve"/>
      <point x="432" y="0" type="line"/>
      <point x="434" y="44"/>
      <point x="413" y="87"/>
      <point x="288" y="287" type="curve"/>
      <point x="260" y="331" type="line"/>
      <point x="101" y="585"/>
      <point x="58" y="640"/>
      <point x="15" y="680" type="curve"/>
      <point x="245" y="680" type="line"/>
      <point x="243" y="639"/>
      <point x="262" y="598"/>
      <point x="369" y="425" type="curve"/>
    </contour>
  </outline>
</glyph>
<glyph name="Y" format="2">
  <advance width="591"/>
  <unicode hex="0059"/>
  <outline>
    <contour>
      <point x="225" y="349" type="line"/>
      <point x="225" y="95"/>
      <point x="218" y="40"/>
      <point x="198" y="0" type="curve"/>
      <point x="395" y="0" type="line"/>
      <point x="375" y="40"/>
      <point x="368" y="95"/>
      <point x="368" y="349" type="curve"/>
    </contour>
    <contour>
      <point x="342" y="210" type="line"/>
      <point x="523" y="569"/>
      <point x="556" y="634"/>
      <point x="596" y="680" type="curve"/>
      <point x="400" y="680" type="line"/>
      <point x="414" y="631"/>
      <point x="400" y="585"/>
      <point x="277" y="331" type="curve"/>
    </contour>
    <contour>
      <point x="331" y="331" type="line"/>
      <point x="207" y="586"/>
      <point x="194" y="631"/>
      <point x="208" y="680" type="curve"/>
      <point x="-5" y="680" type="line"/>
      <point x="35" y="634"/>
      <point x="68" y="569"/>
      <point x="248" y="212" type="curve"/>
    </contour>
  </outline>
</glyph>
<glyph name="Z" format="2">
  <advance width="598"/>
  <unicode hex="005A"/>
  <outline>
    <contour>
      <point x="241" y="126" type="curve"/>
      <point x="135" y="126" type="line"/>
      <point x="132" y="0" type="line"/>
      <point x="217" y="0" type="line"/>
      <point x="525" y="0" type="line"/>
      <point x="545" y="166" type="line"/>
      <point x="506" y="135"/>
      <point x="453" y="120"/>
    </contour>
    <contour>
      <point x="348" y="554" type="curve"/>
      <point x="463" y="554" type="line"/>
      <point x="430" y="680" type="line"/>
      <point x="372" y="680" type="line"/>
      <point x="62" y="680" type="line"/>
      <point x="62" y="524" type="line"/>
      <point x="97" y="542"/>
      <point x="141" y="560"/>
    </contour>
    <contour>
      <point x="563" y="680" type="line"/>
      <point x="402" y="680" type="line"/>
      <point x="35" y="0" type="line"/>
      <point x="196" y="0" type="line"/>
    </contour>
  </outline>
</glyph>
<glyph name="bracketleft" format="2">
  <advance width="445"/>
  <unicode hex="005B"/>
  <outline>
    <contour>
      <point x="240" y="-160" type="line"/>
      <point x="240" y="770" type="line"/>
      <point x="75" y="770" type="line"/>
      <point x="75" y="-160" type="line"/>
    </contour>
    <contour>
      <point x="75.0" y="-160.0" type="line"/>
      <point x="405.0" y="-160.0" type="line"/>
      <point x="405.0" y="-15.0" type="line"/>
      <point x="75.0" y="-15.0" type="line"/>
    </contour>
    <contour>
      <point x="75.0" y="625.0" type="line"/>
      <point x="405.0" y="625.0" type="line"/>
      <point x="405.0" y="770.0" type="line"/>
      <point x="75.0" y="770.0" type="line"/>
    </contour>
  </outline>
</glyph>
<glyph name="backslash" format="2">
  <advance width="460"/>
  <unicode hex="005C"/>
  <outline>
    <contour>
      <point x="445" y="-75" type="line"/>
      <point x="145" y="750" type="line"/>
      <point x="14" y="750" type="line"/>
      <point x="314" y="-75" type="line"/>
    </contour>
  </outline>
</glyph>
<glyph name="bracketright" format="2">
  <advance width="445"/>
  <unicode hex="005D"/>
  <outline>
    <contour>
      <point x="205" y="-160" type="line"/>
      <point x="370" y="-160" type="line"/>
      <point x="370" y="770" type="line"/>
      <point x="205" y="770" type="line"/>
    </contour>
    <contour>
      <point x="370" y="-160" type="line"/>
      <point x="370" y="-15" type="line"/>
      <point x="40" y="-15" type="line"/>
      <point x="40" y="-160" type="line"/>
    </contour>
    <contour>
      <point x="370" y="625" type="line"/>
      <point x="370" y="770" type="line"/>
      <point x="40" y="770" type="line"/>
      <point x="40" y="625" type="line"/>
    </contour>
  </outline>
</glyph>
<glyph name="asciicircum" format="2">
  <advance width="560"/>
  <unicode hex="005E"/>
  <outline>
    <contour>
      <point x="366" y="680" type="line"/>
      <point x="199" y="680" type="line"/>
      <point x="359" y="263" type="line"/>
      <point x="535" y="263" type="line"/>
    </contour>
    <contour>
      <point x="25" y="263" type="line"/>
      <point x="198" y="263" type="line"/>
      <point x="356" y="680" type="line"/>
      <point x="194" y="680" type="line"/>
    </contour>
  </outline>
</glyph>
<glyph name="i" format="2">
  <advance width="288"/>
  <unicode hex="0069"/>
  <outline>
    <contour>
      <point x="49" y="0" type="curve"/>
      <point x="239" y="0" type="line"/>
      <point x="219" y="40"/>
      <point x="212" y="85"/>
      <point x="212" y="299" type="curve" smooth="yes"/>
      <point x="212" y="499"/>
      <point x="219" y="541"/>
      <point x="239" y="580" type="curve"/>
      <point x="49" y="580" type="line"/>
      <point x="69" y="541"/>
      <point x="76" y="499"/>
      <point x="76" y="299" type="curve" smooth="yes"/>
      <point x="76" y="85"/>
      <point x="69" y="40"/>
    </contour>
  </outline>
</glyph>
<glyph name="o" format="2">
  <advance width="652"/>
  <unicode hex="006F"/>
  <outline>
    <contour>
      <point x="326" y="106" type="curve" smooth="yes"/>
      <point x="415.81045751633985" y="106.0"/>
      <point x="477.0" y="177.0"/>
      <point x="477" y="291" type="curve" smooth="yes"/>
      <point x="477.0" y="404.0"/>
      <point x="415.81045751633985" y="474.0"/>
      <point x="326" y="474" type="curve" smooth="yes"/>
      <point x="237.1764705882353" y="474.0"/>
      <point x="175.0" y="405.0"/>
      <point x="175" y="291" type="curve" smooth="yes"/>
      <point x="175.0" y="177.0"/>
      <point x="237.1764705882353" y="106.0"/>
    </contour>
    <contour>
      <point x="326" y="-12" type="curve" smooth="yes"/>
      <point x="155.15436241610738" y="-12.0"/>
      <point x="30.0" y="114.0"/>
      <point x="30" y="291" type="curve" smooth="yes"/>
      <point x="30.0" y="467.0"/>
      <point x="155.15436241610738" y="592.0"/>
      <point x="326" y="592" type="curve" smooth="yes"/>
      <point x="497.83892617449663" y="592.0"/>
      <point x="622.0" y="467.0"/>
      <point x="622" y="291" type="curve" smooth="yes"/>
      <point x="622.0" y="114.0"/>
      <point x="497.83892617449663" y="-12.0"/>
    </contour>
  </outline>
</glyph>
<glyph name="braceleft" format="2">
  <advance width="461"/>
  <unicode hex="007B"/>
  <outline>
    <contour>
      <point x="301" y="440" type="curve" smooth="yes"/>
      <point x="301" y="373"/>
      <point x="266" y="327"/>
      <point x="140" y="339" type="curve"/>
      <point x="115" y="399" type="line"/>
      <point x="136" y="399"/>
      <point x="157" y="408"/>
      <point x="157" y="433" type="curve" smooth="yes"/>
      <point x="157" y="473"/>
      <point x="100" y="578"/>
      <point x="100" y="662" type="curve" smooth="yes"/>
      <point x="100" y="804"/>
      <point x="234" y="855"/>
      <point x="431" y="812" type="curve"/>
      <point x="431" y="666" type="line"/>
      <point x="313" y="737"/>
      <point x="252" y="709"/>
      <point x="252" y="653" type="curve" smooth="yes"/>
      <point x="252" y="596"/>
      <point x="301" y="513"/>
    </contour>
    <contour>
      <point x="50" y="284" type="line"/>
      <point x="50" y="399" type="line"/>
      <point x="206" y="399" type="line"/>
      <point x="206" y="284" type="line"/>
    </contour>
    <contour>
      <point x="301" y="243" type="curve" smooth="yes"/>
      <point x="301" y="170"/>
      <point x="252" y="87"/>
      <point x="252" y="30" type="curve" smooth="yes"/>
      <point x="252" y="-26"/>
      <point x="313" y="-54"/>
      <point x="431" y="17" type="curve"/>
      <point x="431" y="-129" type="line"/>
      <point x="234" y="-172"/>
      <point x="100" y="-121"/>
      <point x="100" y="21" type="curve" smooth="yes"/>
      <point x="100" y="105"/>
      <point x="157" y="210"/>
      <point x="157" y="250" type="curve" smooth="yes"/>
      <point x="157" y="275"/>
      <point x="136" y="284"/>
      <point x="115" y="284" type="curve"/>
      <point x="140" y="344" type="line"/>
      <point x="266" y="356"/>
      <point x="301" y="310"/>
    </contour>
  </outline>
</glyph>
<glyph name="bar" format="2">
  <advance width="375"/>
  <unicode hex="007C"/>
  <outline>
    <contour>
      <point x="123.0" y="-75.0" type="line"/>
      <point x="252.0" y="-75.0" type="line"/>
      <point x="252.0" y="750.0" type="line"/>
      <point x="123.0" y="750.0" type="line"/>
    </contour>
  </outline>
</glyph>
<glyph name="braceright" format="2">
  <advance width="461"/>
  <unicode hex="007D"/>
  <outline>
    <contour>
      <point x="170" y="211" type="curve" smooth="yes"/>
      <point x="170" y="275"/>
      <point x="215" y="331"/>
      <point x="341" y="319" type="curve"/>
      <point x="366" y="239" type="line"/>
      <point x="345" y="239"/>
      <point x="334" y="230"/>
      <point x="334" y="211" type="curve" smooth="yes"/>
      <point x="334" y="165"/>
      <point x="371" y="99"/>
      <point x="371" y="2" type="curve" smooth="yes"/>
      <point x="371" y="-141"/>
      <point x="237" y="-202"/>
      <point x="40" y="-159" type="curve"/>
      <point x="40" y="-13" type="line"/>
      <point x="162" y="-49"/>
      <point x="209" y="-26"/>
      <point x="209.0" y="22.0" type="curve" smooth="yes"/>
      <point x="209" y="70"/>
      <point x="170" y="135"/>
    </contour>
    <contour>
      <point x="421" y="374" type="line"/>
      <point x="421" y="239" type="line"/>
      <point x="245" y="239" type="line"/>
      <point x="245" y="374" type="line"/>
    </contour>
    <contour>
      <point x="170.0" y="402.0" type="curve" smooth="yes"/>
      <point x="170.0" y="478.0"/>
      <point x="209.0" y="543.0"/>
      <point x="209.0" y="591.0" type="curve" smooth="yes"/>
      <point x="209.0" y="639.0"/>
      <point x="162.0" y="662.0"/>
      <point x="40.0" y="626.0" type="curve"/>
      <point x="40.0" y="772.0" type="line"/>
      <point x="237.0" y="815.0"/>
      <point x="371.0" y="754.0"/>
      <point x="371.0" y="611.0" type="curve" smooth="yes"/>
      <point x="371.0" y="514.0"/>
      <point x="334.0" y="448.0"/>
      <point x="334.0" y="402.0" type="curve" smooth="yes"/>
      <point x="334.0" y="383.0"/>
      <point x="345.0" y="374.0"/>
      <point x="366.0" y="374.0" type="curve"/>
      <point x="341.0" y="294.0" type="line"/>
      <point x="215.0" y="282.0"/>
      <point x="170.0" y="338.0"/>
    </contour>
  </outline>
</glyph>
<glyph name="asciitilde" format="2">
  <advance width="639"/>
  <unicode hex="007E"/>
  <outline>
    <contour>
      <point x="418" y="164" type="curve" smooth="yes"/>
      <point x="297.0" y="164"/>
      <point x="278" y="290"/>
      <point x="217" y="290" type="curve" smooth="yes"/>
      <point x="181" y="290"/>
      <point x="166" y="256"/>
      <point x="160" y="171" type="curve"/>
      <point x="55" y="171" type="line"/>
      <point x="35" y="342"/>
      <point x="112" y="439"/>
      <point x="221" y="439" type="curve" smooth="yes"/>
      <point x="342.0" y="439.0"/>
      <point x="361" y="313"/>
      <point x="422" y="313" type="curve" smooth="yes"/>
      <point x="458" y="313"/>
      <point x="473" y="347"/>
      <point x="479" y="432" type="curve"/>
      <point x="584" y="432" type="line"/>
      <point x="604" y="261"/>
      <point x="527" y="164"/>
    </contour>
  </outline>
</glyph>
<glyph name="cent" format="2">
  <advance width="473"/>
  <unicode hex="00A2"/>
  <outline>
    <contour>
      <point x="204" y="500" type="line"/>
      <point x="329" y="500" type="line"/>
      <point x="340" y="680" type="line"/>
      <point x="215" y="680" type="line"/>
    </contour>
    <contour>
      <point x="173" y="-50" type="line"/>
      <point x="298" y="-50" type="line"/>
      <point x="307" y="100" type="line"/>
      <point x="182" y="100" type="line"/>
    </contour>
    <contour>
      <point x="32" y="313" type="curve" smooth="yes"/>
      <point x="32" y="163"/>
      <point x="137" y="59"/>
      <point x="292" y="59" type="curve" smooth="yes"/>
      <point x="338" y="59"/>
      <point x="386" y="67"/>
      <point x="423" y="84" type="curve"/>
      <point x="423" y="226" type="line"/>
      <point x="387" y="197"/>
      <point x="339" y="173"/>
      <point x="293" y="173" type="curve" smooth="yes"/>
      <point x="224" y="173"/>
      <point x="178" y="226"/>
      <point x="178" y="313" type="curve" smooth="yes"/>
      <point x="178" y="400"/>
      <point x="224" y="453"/>
      <point x="293" y="453" type="curve" smooth="yes"/>
      <point x="339" y="453"/>
      <point x="387" y="429"/>
      <point x="423" y="400" type="curve"/>
      <point x="423" y="542" type="line"/>
      <point x="386" y="559"/>
      <point x="338" y="567"/>
      <point x="292" y="567" type="curve" smooth="yes"/>
      <point x="136" y="567"/>
      <point x="32" y="464"/>
    </contour>
  </outline>
</glyph>
<glyph name="sterling" format="2">
  <advance width="561"/>
  <unicode hex="00A3"/>
  <outline>
    <contour>
      <point x="516" y="153" type="line"/>
      <point x="516" y="0" type="line"/>
      <point x="50" y="0" type="line"/>
      <point x="50" y="153" type="line"/>
    </contour>
    <contour>
      <point x="306.0" y="199" type="curve" smooth="yes"/>
      <point x="306.0" y="95"/>
      <point x="233" y="50"/>
      <point x="107" y="62" type="curve"/>
      <point x="87" y="153" type="line"/>
      <point x="121" y="153"/>
      <point x="136" y="164"/>
      <point x="136.0" y="194" type="curve" smooth="yes"/>
      <point x="136" y="254"/>
      <point x="90" y="383"/>
      <point x="90" y="491" type="curve" smooth="yes"/>
      <point x="90" y="682"/>
      <point x="310" y="731"/>
      <point x="501" y="666" type="curve"/>
      <point x="501" y="500" type="line"/>
      <point x="371" y="559"/>
      <point x="265" y="542"/>
      <point x="265.0" y="459" type="curve" smooth="yes"/>
      <point x="265" y="395"/>
      <point x="306" y="295"/>
    </contour>
    <contour>
      <point x="50" y="263" type="line"/>
      <point x="50" y="398" type="line"/>
      <point x="476" y="398" type="line"/>
      <point x="476" y="263" type="line"/>
    </contour>
  </outline>
</glyph>
<glyph name="currency" format="2">
  <advance width="646"/>
  <unicode hex="00A4"/>
  <outline>
    <contour>
      <point x="322" y="237" type="curve" smooth="yes"/>
      <point x="384.02150537634407" y="237.0"/>
      <point x="425.0" y="279.0"/>
      <point x="425" y="344" type="curve" smooth="yes"/>
      <point x="425.0" y="409.0"/>
      <point x="384.02150537634407" y="451.0"/>
      <point x="322" y="451" type="curve" smooth="yes"/>
      <point x="259.77777777777777" y="451.0"/>
      <point x="222.0" y="409.0"/>
      <point x="222" y="344" type="curve" smooth="yes"/>
      <point x="222.0" y="279.0"/>
      <point x="259.77777777777777" y="237.0"/>
    </contour>
    <contour>
      <point x="322" y="112" type="curve" smooth="yes"/>
      <point x="187.83333333333331" y="112.0"/>
      <point x="92.0" y="209.0"/>
      <point x="92" y="344" type="curve" smooth="yes"/>
      <point x="92.0" y="478.0"/>
      <point x="187.83333333333331" y="574.0"/>
      <point x="322" y="574" type="curve" smooth="yes"/>
      <point x="457.1735537190083" y="574.0"/>
      <point x="554.0" y="478.0"/>
      <point x="554" y="344" type="curve" smooth="yes"/>
      <point x="554.0" y="209.0"/>
      <point x="457.1735537190083" y="112.0"/>
    </contour>
    <contour>
      <point x="177" y="392" type="line"/>
      <point x="22" y="548" type="line"/>
      <point x="118" y="644" type="line"/>
      <point x="274" y="489" type="line"/>
    </contour>
    <contour>
      <point x="528" y="42" type="line"/>
      <point x="372" y="197" type="line"/>
      <point x="469" y="294" type="line"/>
      <point x="624" y="138" type="line"/>
    </contour>
    <contour>
      <point x="469" y="392" type="line"/>
      <point x="372" y="489" type="line"/>
      <point x="528" y="644" type="line"/>
      <point x="624" y="548" type="line"/>
    </contour>
    <contour>
      <point x="118" y="42" type="line"/>
      <point x="22" y="138" type="line"/>
      <point x="177" y="294" type="line"/>
      <point x="274" y="197" type="line"/>
    </contour>
  </outline>
</glyph>
<glyph name="guillemetleft" format="2">
  <advance width="752"/>
  <unicode hex="00AB"/>
  <outline>
    <contour>
      <point x="392" y="21" type="line"/>
      <point x="245" y="303" type="line"/>
      <point x="392" y="580" type="line"/>
      <point x="15" y="303" type="line"/>
    </contour>
    <contour>
      <point x="712" y="21" type="line"/>
      <point x="565" y="303" type="line"/>
      <point x="712" y="580" type="line"/>
      <point x="335" y="303" type="line"/>
    </contour>
  </outline>
</glyph>
<glyph name="periodcentered" format="2">
  <advance width="271"/>
  <unicode hex="00B7"/>
  <outline>
    <contour>
      <point x="55.0" y="249.0" type="line"/>
      <point x="216.0" y="249.0" type="line"/>
      <point x="216.0" y="410.0" type="line"/>
      <point x="55.0" y="410.0" type="line"/>
    </contour>
  </outline>
</glyph>
<glyph name="ordmasculine" format="2">
  <advance width="492"/>
  <unicode hex="00BA"/>
  <outline>
    <contour>
      <point x="246" y="401" type="curve" smooth="yes"/>
      <point x="288.91208791208794" y="401.0"/>
      <point x="317.0" y="435.0"/>
      <point x="317" y="483" type="curve" smooth="yes"/>
      <point x="317.0" y="532.0"/>
      <point x="288.91208791208794" y="565.0"/>
      <point x="246" y="565" type="curve" smooth="yes"/>
      <point x="203.0879120879121" y="565.0"/>
      <point x="175.0" y="532.0"/>
      <point x="175" y="483" type="curve" smooth="yes"/>
      <point x="175.0" y="435.0"/>
      <point x="203.0879120879121" y="401.0"/>
    </contour>
    <contour>
      <point x="246" y="272" type="curve" smooth="yes"/>
      <point x="125.47826086956522" y="272.0"/>
      <point x="36.0" y="362.0"/>
      <point x="36" y="483" type="curve" smooth="yes"/>
      <point x="36.0" y="604.0"/>
      <point x="125.47826086956522" y="694.0"/>
      <point x="246" y="694.0" type="curve" smooth="yes"/>
      <point x="365.60869565217394" y="694.0"/>
      <point x="456.0" y="604.0"/>
      <point x="456" y="483" type="curve" smooth="yes"/>
      <point x="456.0" y="362.0"/>
      <point x="365.60869565217394" y="272.0"/>
    </contour>
    <contour>
      <point x="56.0" y="103.0" type="line"/>
      <point x="436.0" y="103.0" type="line"/>
      <point x="436.0" y="232.0" type="line"/>
      <point x="56.0" y="232.0" type="line"/>
    </contour>
  </outline>
</glyph>
<glyph name="guillemetright" format="2">
  <advance width="752"/>
  <unicode hex="00BB"/>
  <outline>
    <contour>
      <point x="360" y="582" type="line"/>
      <point x="507" y="300" type="line"/>
      <point x="360" y="23" type="line"/>
      <point x="737" y="300" type="line"/>
    </contour>
    <contour>
      <point x="40" y="582" type="line"/>
      <point x="187" y="300" type="line"/>
      <point x="40" y="23" type="line"/>
      <point x="417" y="300" type="line"/>
    </contour>
  </outline>
</glyph>
<glyph name="multiply" format="2">
  <advance width="535"/>
  <unicode hex="00D7"/>
  <outline>
    <contour>
      <point x="145" y="86" type="line"/>
      <point x="490" y="431" type="line"/>
      <point x="391" y="530" type="line"/>
      <point x="46" y="185" type="line"/>
    </contour>
    <contour>
      <point x="391" y="86" type="line"/>
      <point x="490" y="185" type="line"/>
      <point x="145" y="530" type="line"/>
      <point x="46" y="431" type="line"/>
    </contour>
  </outline>
</glyph>
<glyph name="circumflex" format="2">
  <advance width="562"/>
  <unicode hex="02C6"/>
  <anchor x="0" y="517" name="top"/>
  <anchor x="280" y="517" name="center"/>
  <outline>
    <contour>
      <point x="295" y="652" type="line"/>
      <point x="219" y="584" type="line"/>
      <point x="70" y="584" type="line"/>
      <point x="282" y="785" type="line"/>
      <point x="492" y="584" type="line"/>
      <point x="343" y="584" type="line"/>
      <point x="267" y="652" type="line"/>
    </contour>
  </outline>
</glyph>
<glyph name="ring" format="2">
  <advance width="420"/>
  <unicode hex="02DA"/>
  <anchor x="0" y="517" name="top"/>
  <anchor x="210" y="517" name="center"/>
  <outline>
    <contour>
      <point x="209" y="622" type="curve" smooth="yes"/>
      <point x="244.953125" y="622.0"/>
      <point x="268.0" y="645.2131147540983"/>
      <point x="268" y="681.0" type="curve" smooth="yes"/>
      <point x="268.0" y="717"/>
      <point x="245.0" y="740.0"/>
      <point x="209" y="740" type="curve" smooth="yes"/>
      <point x="174.0" y="740.0"/>
      <point x="153.0" y="717"/>
      <point x="153.0" y="681.0" type="curve" smooth="yes"/>
      <point x="153.0" y="645.2131147540983"/>
      <point x="174.11475409836066" y="622.0"/>
    </contour>
    <contour>
      <point x="209" y="542" type="curve" smooth="yes"/>
      <point x="124.9391891891892" y="542.0"/>
      <point x="66.0" y="600.1631205673759"/>
      <point x="66" y="681" type="curve" smooth="yes"/>
      <point x="66.0" y="760"/>
      <point x="125.0" y="818.0"/>
      <point x="209" y="818" type="curve" smooth="yes"/>
      <point x="294.0" y="818.0"/>
      <point x="355.0" y="760"/>
      <point x="355" y="681" type="curve" smooth="yes"/>
      <point x="355.0" y="600.1631205673759"/>
      <point x="294.08609271523176" y="542.0"/>
    </contour>
  </outline>
</glyph>
<glyph name="tilde" format="2">
  <advance width="565"/>
  <unicode hex="02DC"/>
  <anchor x="0" y="517" name="top"/>
  <anchor x="282" y="517" name="center"/>
  <outline>
    <contour>
      <point x="400" y="774" type="line"/>
      <point x="400" y="715"/>
      <point x="384" y="692"/>
      <point x="360" y="692" type="curve" smooth="yes"/>
      <point x="314" y="692"/>
      <point x="275" y="778"/>
      <point x="194" y="778" type="curve" smooth="yes"/>
      <point x="111.0" y="778.0"/>
      <point x="60.93440839488272" y="717.1788187173561"/>
      <point x="80" y="578" type="curve"/>
      <point x="165" y="578" type="line"/>
      <point x="165.87808382010414" y="631.563113026352"/>
      <point x="181.0" y="650.0"/>
      <point x="205" y="650" type="curve" smooth="yes"/>
      <point x="251.0" y="650.0"/>
      <point x="291.0" y="574.0"/>
      <point x="370" y="574" type="curve" smooth="yes"/>
      <point x="455.0" y="574.0"/>
      <point x="504.0655916051173" y="634.8211812826439"/>
      <point x="485" y="774" type="curve"/>
    </contour>
  </outline>
</glyph>
<glyph name="quoteleft" format="2">
  <advance width="282"/>
  <unicode hex="2018"/>
  <outline>
    <contour>
      <point x="237" y="399" type="curve"/>
      <point x="70" y="399" type="line"/>
      <point x="48" y="490"/>
      <point x="78" y="630"/>
      <point x="232" y="690" type="curve"/>
      <point x="202" y="561"/>
      <point x="201" y="488"/>
    </contour>
  </outline>
</glyph>
<glyph name="quoteright" format="2">
  <advance width="282"/>
  <unicode hex="2019"/>
  <outline>
    <contour>
      <point x="45" y="750" type="curve"/>
      <point x="212" y="750" type="line"/>
      <point x="234" y="659"/>
      <point x="204" y="519"/>
      <point x="50" y="459" type="curve"/>
      <point x="80" y="588"/>
      <point x="81" y="661"/>
    </contour>
  </outline>
</glyph>
<glyph name="quotesinglbase" format="2">
  <advance width="269"/>
  <unicode hex="201A"/>
  <outline>
    <contour>
      <point x="55" y="161" type="curve"/>
      <point x="222" y="161" type="line"/>
      <point x="232" y="50"/>
      <point x="182" y="-80"/>
      <point x="20" y="-130" type="curve"/>
      <point x="78" y="-11"/>
      <point x="79" y="72"/>
    </contour>
  </outline>
</glyph>
<glyph name="quotedblright" format="2">
  <advance width="507"/>
  <unicode hex="201D"/>
  <outline>
    <contour>
      <point x="45" y="680" type="curve"/>
      <point x="212" y="680" type="line"/>
      <point x="234" y="589"/>
      <point x="204" y="449"/>
      <point x="50" y="389" type="curve"/>
      <point x="80" y="518"/>
      <point x="81" y="591"/>
    </contour>
    <contour>
      <point x="270" y="680" type="curve"/>
      <point x="437" y="680" type="line"/>
      <point x="459" y="589"/>
      <point x="429" y="449"/>
      <point x="275" y="389" type="curve"/>
      <point x="305" y="518"/>
      <point x="306" y="591"/>
    </contour>
  </outline>
</glyph>
<glyph name="quotedblbase" format="2">
  <advance width="494"/>
  <unicode hex="201E"/>
  <outline>
    <contour>
      <point x="55" y="161" type="curve"/>
      <point x="222" y="161" type="line"/>
      <point x="232" y="50"/>
      <point x="182" y="-80"/>
      <point x="20" y="-130" type="curve"/>
      <point x="78" y="-11"/>
      <point x="79" y="72"/>
    </contour>
    <contour>
      <point x="280.0" y="161.0" type="curve"/>
      <point x="447.0" y="161.0" type="line"/>
      <point x="457.0" y="50.0"/>
      <point x="407.0" y="-80.0"/>
      <point x="245.0" y="-130.0" type="curve"/>
      <point x="303.0" y="-11.0"/>
      <point x="304.0" y="72.0"/>
    </contour>
  </outline>
</glyph>
<glyph name="bullet" format="2">
  <advance width="568"/>
  <unicode hex="2022"/>
  <outline>
    <contour>
      <point x="100" y="491" type="curve"/>
      <point x="107" y="462"/>
      <point x="116" y="384"/>
      <point x="116" y="307" type="curve" smooth="yes"/>
      <point x="116" y="230"/>
      <point x="107" y="152"/>
      <point x="100" y="123" type="curve"/>
      <point x="129" y="130"/>
      <point x="207" y="139"/>
      <point x="284" y="139" type="curve" smooth="yes"/>
      <point x="361" y="139"/>
      <point x="439" y="130"/>
      <point x="468" y="123" type="curve"/>
      <point x="461" y="152"/>
      <point x="452" y="230"/>
      <point x="452" y="307" type="curve" smooth="yes"/>
      <point x="452" y="384"/>
      <point x="461" y="462"/>
      <point x="468" y="491" type="curve"/>
      <point x="439" y="484"/>
      <point x="361" y="475"/>
      <point x="284" y="475" type="curve" smooth="yes"/>
      <point x="207" y="475"/>
      <point x="129" y="484"/>
    </contour>
  </outline>
</glyph>
<glyph name="guilsinglleft" format="2">
  <advance width="432"/>
  <unicode hex="2039"/>
  <outline>
    <contour>
      <point x="392" y="21" type="line"/>
      <point x="245" y="303" type="line"/>
      <point x="392" y="580" type="line"/>
      <point x="15" y="303" type="line"/>
    </contour>
  </outline>
</glyph>
<glyph name="guilsinglright" format="2">
  <advance width="432"/>
  <unicode hex="203A"/>
  <outline>
    <contour>
      <point x="40" y="582" type="line"/>
      <point x="187" y="300" type="line"/>
      <point x="40" y="23" type="line"/>
      <point x="417" y="300" type="line"/>
    </contour>
  </outline>
</glyph>
<glyph name="fraction" format="2">
  <advance width="568"/>
  <unicode hex="2044"/>
  <outline>
    <contour>
      <point x="15" y="0" type="line"/>
      <point x="157" y="0" type="line"/>
      <point x="553" y="680" type="line"/>
      <point x="411" y="680" type="line"/>
    </contour>
  </outline>
</glyph>
<glyph name="four.superior" format="2">
  <advance width="446"/>
  <unicode hex="2074"/>
  <outline>
    <contour>
      <point x="215" y="271" type="curve"/>
      <point x="368" y="271" type="line"/>
      <point x="354" y="296"/>
      <point x="349" y="323"/>
      <point x="349" y="478" type="curve" smooth="yes"/>
      <point x="349" y="624"/>
      <point x="354" y="656"/>
      <point x="368" y="680" type="curve"/>
      <point x="215" y="680" type="line"/>
      <point x="229" y="656"/>
      <point x="234" y="624"/>
      <point x="234" y="478" type="curve" smooth="yes"/>
      <point x="234" y="323"/>
      <point x="229" y="296"/>
    </contour>
    <contour>
      <point x="265" y="366" type="line" smooth="yes"/>
      <point x="364" y="366"/>
      <point x="382" y="363"/>
      <point x="406" y="353" type="curve"/>
      <point x="406" y="469" type="line"/>
      <point x="382" y="458"/>
      <point x="364" y="455"/>
      <point x="265" y="455" type="curve" smooth="yes"/>
      <point x="172" y="455" type="line"/>
      <point x="278" y="680" type="line"/>
      <point x="189" y="680" type="line"/>
      <point x="20" y="366" type="line"/>
    </contour>
  </outline>
</glyph>
<glyph name="divisionslash" format="2">
  <advance width="518"/>
  <unicode hex="2215"/>
  <outline>
    <contour>
      <point x="-11" y="-70" type="line"/>
      <point x="137" y="-70" type="line"/>
      <point x="533" y="730" type="line"/>
      <point x="385" y="730" type="line"/>
    </contour>
  </outline>
</glyph>
<glyph name="A.alt" format="2">
  <advance width="690"/>
  <outline>
    <contour>
      <point x="140" y="146" type="line"/>
      <point x="503" y="146" type="line"/>
      <point x="503" y="271" type="line"/>
      <point x="140" y="271" type="line"/>
    </contour>
    <contour>
      <point x="268" y="349.0" type="curve" smooth="yes"/>
      <point x="374" y="680.0" type="line"/>
      <point x="238" y="680.0" type="line"/>
      <point x="238" y="641.0"/>
      <point x="219" y="588.0"/>
      <point x="140" y="349.0" type="curve" smooth="yes"/>
      <point x="55" y="95.0"/>
      <point x="33" y="40.0"/>
      <point x="5.0" y="0.0" type="curve"/>
      <point x="204.0" y="0.0" type="line"/>
      <point x="184" y="48.0"/>
      <point x="186" y="95.0"/>
    </contour>
    <contour>
      <point x="402" y="349.0" type="line" smooth="yes"/>
      <point x="485" y="95.0"/>
      <point x="486" y="48.0"/>
      <point x="466.0" y="0.0" type="curve"/>
      <point x="685.0" y="0.0" type="line"/>
      <point x="657" y="40.0"/>
      <point x="635" y="95.0"/>
      <point x="550" y="349.0" type="curve" smooth="yes"/>
      <point x="471" y="588.0"/>
      <point x="457" y="641.0"/>
      <point x="452" y="680.0" type="curve"/>
      <point x="438" y="680.0" type="line"/>
      <point x="296" y="680.0" type="line"/>
    </contour>
  </outline>
</glyph>
<glyph name="Q.alt" format="2">
  <advance width="753"/>
  <outline>
    <contour>
      <point x="367" y="113" type="curve" smooth="yes"/>
      <point x="474" y="113"/>
      <point x="546" y="200"/>
      <point x="546" y="341" type="curve" smooth="yes"/>
      <point x="546" y="481"/>
      <point x="474" y="567"/>
      <point x="367" y="567" type="curve" smooth="yes"/>
      <point x="260" y="567"/>
      <point x="188" y="482"/>
      <point x="188" y="341" type="curve" smooth="yes"/>
      <point x="188" y="200"/>
      <point x="260" y="113"/>
    </contour>
    <contour>
      <point x="367" y="-12" type="curve" smooth="yes"/>
      <point x="174" y="-12"/>
      <point x="34" y="135"/>
      <point x="34" y="341" type="curve" smooth="yes"/>
      <point x="34" y="546"/>
      <point x="174" y="692"/>
      <point x="367" y="692" type="curve" smooth="yes"/>
      <point x="559" y="692"/>
      <point x="700" y="546"/>
      <point x="700" y="341" type="curve" smooth="yes"/>
      <point x="700" y="135"/>
      <point x="559" y="-12"/>
    </contour>
    <contour>
      <point x="492" y="-64" type="line"/>
      <point x="489" y="-25"/>
      <point x="457" y="29"/>
      <point x="309" y="274" type="curve"/>
      <point x="469" y="275" type="line"/>
      <point x="472" y="236"/>
      <point x="504" y="182"/>
      <point x="652" y="-63" type="curve"/>
    </contour>
  </outline>
</glyph>
<glyph name="one.alt" format="2">
  <advance width="376"/>
  <outline>
    <contour>
      <point x="247" y="550" type="line"/>
      <point x="124" y="533"/>
      <point x="70" y="509"/>
      <point x="20" y="468" type="curve"/>
      <point x="20" y="630" type="line"/>
      <point x="314" y="693" type="line"/>
      <point x="302" y="636"/>
      <point x="297" y="586"/>
      <point x="297" y="349" type="curve" smooth="yes"/>
      <point x="297" y="95"/>
      <point x="304" y="40"/>
      <point x="324" y="0" type="curve"/>
      <point x="117" y="0" type="line"/>
      <point x="146" y="43"/>
      <point x="154" y="95"/>
      <point x="154" y="349" type="curve" smooth="yes"/>
      <point x="154" y="436"/>
      <point x="153" y="498"/>
      <point x="151" y="544" type="curve"/>
    </contour>
  </outline>
</glyph>
